<svg width="540" height="174" viewBox="0 0 540 174" fill="none" xmlns="http://www.w3.org/2000/svg">
<path d="M61.9785 69H59.5527V20.3945H61.9785V69ZM58.2949 5.21094C58.2949 4.52214 58.5345 3.93815 59.0137 3.45898C59.4928 2.94987 60.0768 2.69531 60.7656 2.69531C61.4544 2.69531 62.0384 2.94987 62.5176 3.45898C63.0267 3.93815 63.2812 4.52214 63.2812 5.21094C63.2812 5.89974 63.0267 6.48372 62.5176 6.96289C62.0384 7.44206 61.4544 7.68164 60.7656 7.68164C60.0768 7.68164 59.4928 7.44206 59.0137 6.96289C58.5345 6.48372 58.2949 5.89974 58.2949 5.21094Z" fill="white"/>
<path d="M83.3613 7.27734V20.3945H94.4121V22.8652H83.3613V57.3652C83.3613 60.8092 83.9154 63.3548 85.0234 65.002C86.1615 66.6491 88.0482 67.4727 90.6836 67.4727C92.0013 67.4727 93.6035 67.3379 95.4902 67.0684L95.8945 69.3594C94.9062 69.7188 93.2142 69.8984 90.8184 69.8984C87.2845 69.8984 84.7539 68.9251 83.2266 66.9785C81.6992 65.002 80.9206 61.9023 80.8906 57.6797V22.8652H71.9062V20.3945H80.8906V7.27734H83.3613Z" fill="white"/>
<path d="M136.998 57.0957C136.998 51.196 131.967 47.1829 121.904 45.0566C115.855 43.7689 111.647 42.1217 109.281 40.1152C106.915 38.0788 105.732 35.2936 105.732 31.7598C105.732 28.196 107.23 25.2611 110.225 22.9551C113.249 20.6491 117.173 19.4961 121.994 19.4961C127.235 19.4961 131.443 20.7539 134.617 23.2695C137.792 25.7552 139.379 29.1243 139.379 33.377H136.908C136.908 30.1126 135.531 27.3874 132.775 25.2012C130.02 23.015 126.426 21.9219 121.994 21.9219C117.742 21.9219 114.372 22.8503 111.887 24.707C109.401 26.5638 108.158 28.8848 108.158 31.6699C108.158 33.8561 108.622 35.5781 109.551 36.8359C110.479 38.0638 111.992 39.1868 114.088 40.2051C116.184 41.1934 119.239 42.1517 123.252 43.0801C127.265 44.0085 130.439 45.1016 132.775 46.3594C135.111 47.6172 136.803 49.1146 137.852 50.8516C138.9 52.5586 139.424 54.6549 139.424 57.1406C139.424 60.974 137.852 64.0586 134.707 66.3945C131.562 68.7305 127.445 69.8984 122.354 69.8984C116.903 69.8984 112.501 68.6706 109.146 66.2148C105.822 63.7292 104.16 60.5397 104.16 56.6465H106.586C106.826 60.0605 108.323 62.7259 111.078 64.6426C113.863 66.5293 117.622 67.4727 122.354 67.4727C126.696 67.4727 130.215 66.4694 132.91 64.4629C135.635 62.4264 136.998 59.9707 136.998 57.0957Z" fill="white"/>
<path d="M206.268 69C205.669 66.9336 205.369 63.9688 205.369 60.1055C203.452 63.2201 200.832 65.6309 197.508 67.3379C194.184 69.0449 190.425 69.8984 186.232 69.8984C181.74 69.8984 178.117 68.6855 175.361 66.2598C172.636 63.804 171.273 60.6146 171.273 56.6914C171.273 52.2292 173.28 48.6654 177.293 46C181.336 43.3047 186.697 41.9271 193.375 41.8672H205.369V34.7695C205.369 30.6966 204.081 27.5371 201.506 25.291C198.96 23.0449 195.307 21.9219 190.545 21.9219C186.113 21.9219 182.414 23.0599 179.449 25.3359C176.484 27.612 175.002 30.4271 175.002 33.7812L172.576 33.6914C172.576 29.7383 174.313 26.3841 177.787 23.6289C181.261 20.8737 185.514 19.4961 190.545 19.4961C195.786 19.4961 199.949 20.8138 203.033 23.4492C206.118 26.0547 207.705 29.7383 207.795 34.5V57.7246C207.795 63.0553 208.214 66.679 209.053 68.5957V69H206.268ZM186.232 67.5176C190.785 67.5176 194.693 66.4993 197.957 64.4629C201.251 62.4264 203.722 59.5664 205.369 55.8828V44.3379H194.139C187.191 44.3379 181.875 45.7155 178.191 48.4707C175.197 50.7168 173.699 53.5169 173.699 56.8711C173.699 59.8359 174.882 62.3516 177.248 64.418C179.614 66.4844 182.609 67.5176 186.232 67.5176Z" fill="white"/>
<path d="M226.482 69H224.057V0H226.482V69Z" fill="white"/>
<path d="M245.439 69H243.014V0H245.439V69Z" fill="white"/>
<path d="M281.152 44.2031C281.152 36.4466 282.785 30.3971 286.049 26.0547C289.313 21.6823 293.79 19.4961 299.48 19.4961C303.134 19.4961 306.354 20.3197 309.139 21.9668C311.954 23.6139 314.23 26.0697 315.967 29.334V0H318.393V69H315.967V61.2285C314.32 63.9837 312.059 66.125 309.184 67.6523C306.309 69.1497 303.044 69.8984 299.391 69.8984C293.76 69.8984 289.313 67.6673 286.049 63.2051C282.785 58.7428 281.152 52.6185 281.152 44.832V44.2031ZM283.668 45.1465C283.668 52.0345 285.031 57.485 287.756 61.498C290.481 65.4811 294.344 67.4727 299.346 67.4727C303.359 67.4727 306.788 66.5892 309.633 64.8223C312.478 63.0254 314.589 60.4049 315.967 56.9609V34.1855C313.182 26.0098 307.671 21.9219 299.436 21.9219C294.464 21.9219 290.586 23.8835 287.801 27.8066C285.046 31.7298 283.668 37.5098 283.668 45.1465Z" fill="white"/>
<path d="M330.117 43.7539C330.117 39.112 331.001 34.9492 332.768 31.2656C334.564 27.5521 337.08 24.6621 340.314 22.5957C343.579 20.5293 347.262 19.4961 351.365 19.4961C355.438 19.4961 359.092 20.4993 362.326 22.5059C365.561 24.5124 368.076 27.3574 369.873 31.041C371.7 34.7246 372.628 38.8724 372.658 43.4844V45.6406C372.658 50.3125 371.775 54.4902 370.008 58.1738C368.241 61.8574 365.725 64.7324 362.461 66.7988C359.227 68.8652 355.558 69.8984 351.455 69.8984C347.352 69.8984 343.669 68.8802 340.404 66.8438C337.17 64.8073 334.654 61.9622 332.857 58.3086C331.061 54.625 330.147 50.4922 330.117 45.9102V43.7539ZM332.543 45.6406C332.543 49.6836 333.337 53.3971 334.924 56.7812C336.541 60.1354 338.772 62.7559 341.617 64.6426C344.492 66.5293 347.771 67.4727 351.455 67.4727C356.995 67.4727 361.503 65.3913 364.977 61.2285C368.48 57.0658 370.232 51.7051 370.232 45.1465V43.7539C370.232 39.7708 369.424 36.0872 367.807 32.7031C366.189 29.319 363.943 26.6836 361.068 24.7969C358.223 22.8802 354.989 21.9219 351.365 21.9219C345.825 21.9219 341.303 24.0332 337.799 28.2559C334.295 32.4785 332.543 37.7943 332.543 44.2031V45.6406Z" fill="white"/>
<path d="M386.898 31.7148C388.486 27.9414 390.822 24.9616 393.906 22.7754C396.991 20.5892 400.405 19.4961 404.148 19.4961C409.359 19.4961 413.223 20.9785 415.738 23.9434C418.284 26.8783 419.572 31.3255 419.602 37.2852V69H417.176V37.1953C417.146 31.9844 416.083 28.1361 413.986 25.6504C411.89 23.1348 408.566 21.877 404.014 21.877C399.821 21.877 396.182 23.3743 393.098 26.3691C390.043 29.334 387.977 33.1673 386.898 37.8691V69H384.473V20.3945H386.898V31.7148Z" fill="white"/>
<path d="M452.35 69.8984C448.426 69.8984 444.818 68.8503 441.523 66.7539C438.259 64.6276 435.699 61.7227 433.842 58.0391C431.985 54.3555 431.057 50.2676 431.057 45.7754V43.7539C431.057 39.2617 431.955 35.1439 433.752 31.4004C435.549 27.6569 438.02 24.737 441.164 22.6406C444.309 20.5443 447.738 19.4961 451.451 19.4961C456.872 19.4961 461.304 21.4277 464.748 25.291C468.192 29.1543 469.914 34.2305 469.914 40.5195V43.0801H433.482V45.7305C433.482 49.6836 434.306 53.3522 435.953 56.7363C437.63 60.0905 439.921 62.7259 442.826 64.6426C445.761 66.5592 448.936 67.5176 452.35 67.5176C455.614 67.5176 458.384 66.9785 460.66 65.9004C462.966 64.7923 465.003 63.1003 466.77 60.8242L468.477 62.0371C464.853 67.278 459.477 69.8984 452.35 69.8984ZM451.451 21.9219C446.719 21.9219 442.706 23.6888 439.412 27.2227C436.118 30.7266 434.186 35.2038 433.617 40.6543H467.488V40.0703C467.488 36.776 466.785 33.7214 465.377 30.9062C463.999 28.0612 462.083 25.86 459.627 24.3027C457.201 22.7155 454.476 21.9219 451.451 21.9219Z" fill="white"/>
<path d="M479.303 80.4551L477.641 79.0176C480.066 75.903 481.384 72.6836 481.594 69.3594L481.639 61.8574H484.064V68.416C483.945 73.1777 482.357 77.1908 479.303 80.4551Z" fill="white"/>
<path d="M30.0908 143.452C30.0908 140.961 29.083 138.959 27.0674 137.447C25.0798 135.936 22.0703 134.76 18.0391 133.92C14.0078 133.052 10.8724 132.072 8.63281 130.98C6.42122 129.861 4.76953 128.503 3.67773 126.907C2.61393 125.312 2.08203 123.38 2.08203 121.112C2.08203 117.529 3.57975 114.576 6.5752 112.252C9.57064 109.9 13.4059 108.725 18.0811 108.725C23.1481 108.725 27.2074 109.984 30.2588 112.504C33.3382 114.995 34.8779 118.257 34.8779 122.288H29.8389C29.8389 119.629 28.7191 117.417 26.4795 115.653C24.2679 113.89 21.4684 113.008 18.0811 113.008C14.7777 113.008 12.1182 113.75 10.1025 115.233C8.11491 116.689 7.12109 118.593 7.12109 120.944C7.12109 123.212 7.94694 124.976 9.59863 126.235C11.2783 127.467 14.3158 128.601 18.7109 129.637C23.1341 130.673 26.4375 131.778 28.6211 132.954C30.8327 134.13 32.4704 135.544 33.5342 137.195C34.598 138.847 35.1299 140.849 35.1299 143.2C35.1299 147.035 33.5762 150.101 30.4688 152.396C27.3893 154.692 23.3581 155.84 18.375 155.84C13.084 155.84 8.78678 154.566 5.4834 152.019C2.20801 149.443 0.570312 146.196 0.570312 142.276H5.60938C5.80534 145.216 7.03711 147.511 9.30469 149.163C11.6003 150.787 14.6237 151.599 18.375 151.599C21.8743 151.599 24.7018 150.829 26.8574 149.289C29.013 147.749 30.0908 145.804 30.0908 143.452Z" fill="white"/>
<path d="M75.1484 155C74.6445 153.572 74.3226 151.459 74.1826 148.659C72.4189 150.955 70.1654 152.732 67.4219 153.992C64.7064 155.224 61.8229 155.84 58.7715 155.84C54.4043 155.84 50.863 154.622 48.1475 152.187C45.46 149.751 44.1162 146.672 44.1162 142.948C44.1162 138.525 45.9499 135.026 49.6172 132.45C53.3125 129.875 58.4495 128.587 65.0283 128.587H74.1406V123.422C74.1406 120.174 73.1328 117.627 71.1172 115.779C69.1296 113.904 66.2181 112.966 62.3828 112.966C58.8835 112.966 55.986 113.862 53.6904 115.653C51.3949 117.445 50.2471 119.601 50.2471 122.12L45.208 122.078C45.208 118.467 46.8877 115.345 50.2471 112.714C53.6064 110.054 57.7357 108.725 62.6348 108.725C67.7018 108.725 71.6911 109.998 74.6025 112.546C77.542 115.065 79.0537 118.593 79.1377 123.128V144.628C79.1377 149.023 79.5996 152.312 80.5234 154.496V155H75.1484ZM59.3594 151.389C62.7188 151.389 65.7142 150.577 68.3457 148.953C71.0052 147.329 72.9368 145.16 74.1406 142.444V132.45H65.1543C60.1432 132.506 56.224 133.43 53.3965 135.222C50.569 136.985 49.1553 139.421 49.1553 142.528C49.1553 145.076 50.0931 147.189 51.9688 148.869C53.8724 150.549 56.3359 151.389 59.3594 151.389Z" fill="white"/>
<path d="M106.307 147.777L119.576 109.564H124.993L105.593 162.727L104.585 165.078C102.093 170.593 98.2441 173.351 93.0371 173.351C91.8333 173.351 90.5456 173.155 89.1738 172.763L89.1318 168.605L91.7354 168.857C94.1989 168.857 96.1865 168.242 97.6982 167.01C99.238 165.806 100.54 163.72 101.604 160.753L103.829 154.622L86.6963 109.564H92.1973L106.307 147.777Z" fill="white"/>
<path d="M160.309 117.249C164.676 111.454 169.827 108.613 175.762 108.725C180.129 108.837 183.306 110.362 185.294 113.302C187.282 116.241 187.981 120.286 187.394 125.438L182.438 155H177.483L182.438 125.354C182.606 123.758 182.634 122.218 182.522 120.734C182.047 115.751 179.331 113.19 174.376 113.05C171.437 112.994 168.693 113.876 166.146 115.695C163.598 117.487 161.358 120.202 159.427 123.842L154.052 155H149.097L160.309 90.5H165.264L160.309 117.249Z" fill="white"/>
<path d="M200.873 155H195.834L203.771 109.564H208.768L200.873 155ZM205.156 96.4209C205.296 94.6012 206.5 93.4535 208.768 92.9775C209.859 93.1735 210.629 93.5234 211.077 94.0273C211.553 94.5033 211.861 95.3011 212.001 96.4209C211.721 97.4847 211.315 98.2686 210.783 98.7725C210.251 99.2484 209.453 99.5983 208.39 99.8223C206.122 99.4863 205.044 98.3525 205.156 96.4209Z" fill="white"/>
<path d="M247.778 97.9326V109.564H257.185V113.68H247.778V143.956C247.778 146.476 248.226 148.351 249.122 149.583C250.046 150.815 251.572 151.431 253.699 151.431C254.539 151.431 255.897 151.291 257.772 151.011L257.982 155.126C256.667 155.602 254.875 155.84 252.607 155.84C249.164 155.84 246.659 154.846 245.091 152.858C243.523 150.843 242.739 147.889 242.739 143.998V113.68H234.383V109.564H242.739V97.9326H247.778Z" fill="white"/>
<path d="M263.987 131.61C263.987 127.243 264.827 123.31 266.507 119.811C268.215 116.311 270.608 113.596 273.688 111.664C276.795 109.704 280.308 108.725 284.228 108.725C290.274 108.725 295.174 110.852 298.925 115.107C302.676 119.335 304.552 124.948 304.552 131.946V132.996C304.552 137.391 303.698 141.353 301.99 144.88C300.311 148.379 297.931 151.081 294.852 152.984C291.772 154.888 288.259 155.84 284.312 155.84C278.293 155.84 273.394 153.726 269.614 149.499C265.863 145.244 263.987 139.617 263.987 132.618V131.61ZM269.026 132.996C269.026 138.427 270.426 142.892 273.226 146.392C276.053 149.863 279.748 151.599 284.312 151.599C288.847 151.599 292.514 149.863 295.313 146.392C298.141 142.892 299.555 138.287 299.555 132.576V131.61C299.555 128.139 298.911 124.962 297.623 122.078C296.335 119.195 294.53 116.969 292.206 115.401C289.882 113.806 287.223 113.008 284.228 113.008C279.748 113.008 276.095 114.771 273.268 118.299C270.44 121.798 269.026 126.389 269.026 132.072V132.996Z" fill="white"/>
<path d="M372.453 132.744C372.453 139.827 370.885 145.454 367.75 149.625C364.615 153.768 360.401 155.84 355.11 155.84C348.784 155.84 343.996 153.488 340.749 148.785L340.539 155H335.836V90.5H340.833V116.157C344.024 111.202 348.756 108.725 355.026 108.725C360.401 108.725 364.643 110.782 367.75 114.897C370.885 118.985 372.453 124.682 372.453 131.988V132.744ZM367.414 131.862C367.414 125.871 366.252 121.252 363.929 118.005C361.605 114.729 358.33 113.092 354.103 113.092C350.883 113.092 348.154 113.89 345.914 115.485C343.674 117.053 341.981 119.363 340.833 122.414V142.906C343.353 148.617 347.804 151.473 354.187 151.473C358.33 151.473 361.563 149.835 363.887 146.56C366.238 143.284 367.414 138.385 367.414 131.862Z" fill="white"/>
<path d="M401.176 155.84C397.312 155.84 393.813 154.888 390.678 152.984C387.57 151.081 385.149 148.435 383.413 145.048C381.677 141.632 380.81 137.811 380.81 133.584V131.778C380.81 127.411 381.649 123.478 383.329 119.979C385.037 116.479 387.402 113.736 390.426 111.748C393.449 109.732 396.725 108.725 400.252 108.725C405.767 108.725 410.134 110.614 413.354 114.394C416.601 118.145 418.225 123.282 418.225 129.805V132.618H385.807V133.584C385.807 138.735 387.276 143.032 390.216 146.476C393.183 149.891 396.907 151.599 401.386 151.599C404.073 151.599 406.439 151.109 408.482 150.129C410.554 149.149 412.43 147.581 414.109 145.426L417.259 147.819C413.563 153.166 408.202 155.84 401.176 155.84ZM400.252 113.008C396.473 113.008 393.281 114.394 390.678 117.165C388.102 119.937 386.535 123.66 385.975 128.335H413.228V127.789C413.088 123.422 411.842 119.867 409.49 117.123C407.139 114.38 404.059 113.008 400.252 113.008Z" fill="white"/>
<path d="M449.005 113.848C447.941 113.652 446.807 113.554 445.604 113.554C442.468 113.554 439.809 114.436 437.625 116.199C435.469 117.935 433.93 120.468 433.006 123.8V155H428.009V109.564H432.922L433.006 116.787C435.665 111.412 439.935 108.725 445.813 108.725C447.213 108.725 448.319 108.907 449.131 109.271L449.005 113.848Z" fill="white"/>
<path d="M466.894 97.9326V109.564H476.3V113.68H466.894V143.956C466.894 146.476 467.341 148.351 468.237 149.583C469.161 150.815 470.687 151.431 472.814 151.431C473.654 151.431 475.012 151.291 476.888 151.011L477.098 155.126C475.782 155.602 473.99 155.84 471.723 155.84C468.279 155.84 465.774 154.846 464.206 152.858C462.638 150.843 461.854 147.889 461.854 143.998V113.68H453.498V109.564H461.854V97.9326H466.894Z" fill="white"/>
<path d="M515.395 155C514.891 153.572 514.569 151.459 514.429 148.659C512.665 150.955 510.411 152.732 507.668 153.992C504.952 155.224 502.069 155.84 499.018 155.84C494.65 155.84 491.109 154.622 488.394 152.187C485.706 149.751 484.362 146.672 484.362 142.948C484.362 138.525 486.196 135.026 489.863 132.45C493.559 129.875 498.696 128.587 505.274 128.587H514.387V123.422C514.387 120.174 513.379 117.627 511.363 115.779C509.376 113.904 506.464 112.966 502.629 112.966C499.13 112.966 496.232 113.862 493.937 115.653C491.641 117.445 490.493 119.601 490.493 122.12L485.454 122.078C485.454 118.467 487.134 115.345 490.493 112.714C493.853 110.054 497.982 108.725 502.881 108.725C507.948 108.725 511.937 109.998 514.849 112.546C517.788 115.065 519.3 118.593 519.384 123.128V144.628C519.384 149.023 519.846 152.312 520.77 154.496V155H515.395ZM499.605 151.389C502.965 151.389 505.96 150.577 508.592 148.953C511.251 147.329 513.183 145.16 514.387 142.444V132.45H505.4C500.389 132.506 496.47 133.43 493.643 135.222C490.815 136.985 489.401 139.421 489.401 142.528C489.401 145.076 490.339 147.189 492.215 148.869C494.118 150.549 496.582 151.389 499.605 151.389Z" fill="white"/>
<path d="M538.196 137.993H533.535L533.283 93.8594H538.49L538.196 137.993ZM532.695 152.061C532.695 151.109 533.003 150.311 533.619 149.667C534.235 148.995 535.075 148.659 536.139 148.659C537.202 148.659 538.042 148.995 538.658 149.667C539.302 150.311 539.624 151.109 539.624 152.061C539.624 152.984 539.302 153.768 538.658 154.412C538.042 155.028 537.202 155.336 536.139 155.336C535.075 155.336 534.235 155.028 533.619 154.412C533.003 153.768 532.695 152.984 532.695 152.061Z" fill="white"/>
</svg>
